<?xml version="1.0" encoding="UTF-8"?>
<svg width="159px" height="147px" viewBox="0 0 159 147" version="1.1" xmlns="http://www.w3.org/2000/svg" xmlns:xlink="http://www.w3.org/1999/xlink">
    <!-- Generator: Sketch 61.2 (89653) - https://sketch.com -->
    <title>Group 4</title>
    <desc>Created with Sketch.</desc>
    <g id="Page-1" stroke="none" stroke-width="1" fill="none" fill-rule="evenodd">
        <g id="Group-4">
            <g id="Group-2" transform="translate(0.000000, 89.000000)" fill="#242424" fill-rule="nonzero">
                <g id="Bitmap-2">
                    <g id="Group" transform="translate(79.500000, 29.000000) scale(-1, 1) rotate(-180.000000) translate(-79.500000, -29.000000) translate(0.000000, 0.000000)">
                        <path d="M0,34.25 L0,10.5 L5.65,10.5 L11.3,10.5 L12.15,12.3 L13,14.05 L14.65,12.7 C17.4,10.35 19.9,9.5 24.1,9.5 C28.9,9.5 32.5,10.75 35.7,13.55 C44.7,21.5 44.85,38.7 35.95,46.7 C32.75,49.6 29.95,50.65 24.75,50.9 C20.45,51.1 20.1,51 16.9,49.4 L13.5,47.65 L13.5,52.85 L13.5,58 L6.75,58 L0,58 L0,34.25 Z M25.55,38.85 C28,37.25 29.5,34 29.5,30.25 C29.5,24.55 26.25,20.5 21.65,20.5 C17.55,20.5 14.5,23.15 13.55,27.45 C12.55,32.05 14.3,37.2 17.45,39.2 C19.4,40.4 23.5,40.25 25.55,38.85 Z" id="Shape"></path>
                        <polygon id="Path" points="95 53.25 95 48.5 91.75 48.5 88.5 48.5 88.5 42.25 88.5 36 91.75 36 95 36 95 23.25 95 10.5 101.75 10.5 108.5 10.5 108.5 23.25 108.5 36 112.25 36 116 36 116 42.25 116 48.5 112.25 48.5 108.5 48.5 108.5 53.25 108.5 58 101.75 58 95 58"></polygon>
                        <path d="M131.65,50.3 C122.35,47.25 116.5,38.6 117.15,28.65 C118,14.6 132.25,5.45 145.5,10.45 C147,11.05 148.95,12.05 149.75,12.7 L151.25,13.9 L148,17.4 C146.15,19.4 144.4,20.85 144,20.75 C143.6,20.65 142.25,20.2 141,19.75 C138,18.6 134.45,19.35 132.15,21.6 C131.25,22.5 130.5,23.4 130.5,23.6 C130.5,23.8 136.65,24 144.2,24 C154.3,24 158.05,24.15 158.3,24.6 C158.5,24.9 158.8,26.9 158.9,29 C159.3,35.6 157.2,40.8 152.25,45.45 C148.15,49.35 144.9,50.65 138.75,50.85 C135.45,50.95 133.05,50.75 131.65,50.3 Z M141.75,39.05 C144.05,38 145.2,36.85 145.95,34.85 L146.5,33.5 L138.25,33.5 L130.05,33.5 L130.55,34.95 C131.5,37.65 135,40 138,40 C138.95,40 140.65,39.55 141.75,39.05 Z" id="Shape"></path>
                        <path d="M40,48.25 C40,47.9 44.05,38.2 51.35,21.05 L56.1,9.9 L54.25,5.55 C53.25,3.2 52.3,0.95 52.15,0.65 C51.95,0.15 53.6,0 59.4,0 L66.9,0 L67.9,2.4 C70.4,8.15 87,48.1 87,48.3 C87,48.45 83.6,48.45 79.4,48.4 L71.85,48.25 L67.85,37.65 C65.65,31.8 63.75,27 63.55,27 C63.4,27 61.4,31.8 59.2,37.65 L55.15,48.25 L47.55,48.4 C43.4,48.45 40,48.4 40,48.25 Z" id="Path"></path>
                    </g>
                </g>
            </g>
            <g id="Group-3" transform="translate(43.500000, 0.000000)">
                <circle id="Oval" fill="#FFD43B" cx="48.25" cy="48.25" r="27.75"></circle>
                <rect id="Rectangle" fill="#306998" style="mix-blend-mode: hue;" x="0" y="0" width="48" height="48"></rect>
            </g>
        </g>
    </g>
</svg>